<?xml version="1.0" encoding="UTF-8"?>
<svg version="1.1" xmlns="http://www.w3.org/2000/svg" width="110" height="110">
<path d="M0 0 C1.47712212 -0.01441132 1.47712212 -0.01441132 2.98408508 -0.02911377 C4.0517662 -0.03336365 5.11944733 -0.03761353 6.21948242 -0.04199219 C7.31459641 -0.04769226 8.40971039 -0.05339233 9.53800964 -0.05926514 C11.85898876 -0.06872432 14.17998136 -0.07525275 16.50097656 -0.07910156 C20.04996238 -0.08879891 23.5983672 -0.1198109 27.1472168 -0.15136719 C29.40046856 -0.15789792 31.65372447 -0.16314811 33.90698242 -0.16699219 C35.49939507 -0.18551239 35.49939507 -0.18551239 37.12397766 -0.20440674 C46.40846614 -0.17638065 46.40846614 -0.17638065 50.26245117 3.16113281 C51.98615891 6.60854829 51.76551789 10.39148621 51.26245117 14.16113281 C49.38624504 16.66274099 48.02353814 17.78058933 45.26245117 19.16113281 C43.68601443 19.27134637 42.10508563 19.32022841 40.52490234 19.33813477 C39.54015427 19.35097 38.55540619 19.36380524 37.54081726 19.37702942 C36.47313614 19.38441635 35.40545502 19.39180328 34.30541992 19.39941406 C33.21030594 19.40748581 32.11519196 19.41555756 30.9868927 19.4238739 C28.66591987 19.43772186 26.34492662 19.44844081 24.02392578 19.45629883 C20.47478634 19.47351236 16.92657801 19.51739341 13.37768555 19.56152344 C11.1244372 19.57165006 8.87118092 19.58016626 6.61791992 19.58691406 C5.02550728 19.61317619 5.02550728 19.61317619 3.40092468 19.63996887 C-3.98101344 19.61824662 -3.98101344 19.61824662 -7.88476562 17.25952148 C-10.30552368 14.51786705 -10.70063162 13.55245524 -11.05004883 9.84863281 C-10.68878941 5.58577171 -9.71762829 4.14121227 -6.73754883 1.16113281 C-4.30521697 -0.05503311 -2.71851182 0.02136702 0 0 Z " fill="#54CC62" transform="translate(16.737548828125,65.8388671875)"/>
<path d="M0 0 C1.13526123 -0.00478363 2.27052246 -0.00956726 3.44018555 -0.01449585 C5.83741646 -0.01789422 8.23469375 -0.00869641 10.63183594 0.01220703 C14.29987994 0.03897042 17.96486361 0.01245382 21.6328125 -0.01953125 C23.96354842 -0.01622714 26.29428243 -0.0098209 28.625 0 C29.72094482 -0.01012115 30.81688965 -0.02024231 31.94604492 -0.03067017 C39.5430889 0.0861948 39.5430889 0.0861948 43.50366211 3.06079102 C45.37939622 5.76033925 45.97082633 6.9853777 45.875 10.2265625 C45.87693359 11.34224609 45.87693359 11.34224609 45.87890625 12.48046875 C45.09108797 15.51764406 43.71680287 16.68016472 41.3125 18.6640625 C38.80834961 19.1787262 38.80834961 19.1787262 35.96484375 19.19750977 C34.36298218 19.22126427 34.36298218 19.22126427 32.72875977 19.24549866 C31.58076904 19.24053879 30.43277832 19.23557892 29.25 19.23046875 C27.47484009 19.23976662 27.47484009 19.23976662 25.66381836 19.24925232 C23.16228051 19.25635474 20.66069543 19.25316923 18.15917969 19.24047852 C14.32659165 19.22661348 10.49644424 19.2606815 6.6640625 19.29882812 C4.2343744 19.29977929 1.80468324 19.29792066 -0.625 19.29296875 C-2.34698608 19.31285606 -2.34698608 19.31285606 -4.10375977 19.33314514 C-12.0379117 19.24002885 -12.0379117 19.24002885 -15.40600586 16.25366211 C-16.60477449 13.83123139 -17.25539676 12.34085384 -17.25 9.6640625 C-17.27191406 9.0246875 -17.29382812 8.3853125 -17.31640625 7.7265625 C-14.72990616 -0.75587258 -7.45953767 -0.06888954 0 0 Z " fill="#E42F6A" transform="translate(53.6875,23.3359375)"/>
<path d="M0 0 C0.90298828 -0.03738281 1.80597656 -0.07476562 2.73632812 -0.11328125 C7.29876637 -0.17362209 9.49833873 -0.12234182 13.2890625 2.61328125 C15.74025138 6.1791054 15.85103865 8.09737189 15.62109375 12.28515625 C14.99519719 15.30186488 13.66559096 16.62575932 11.1875 18.375 C7.68706737 20.12521631 3.73184036 19.64448691 -0.125 19.6875 C-0.98029297 19.71650391 -1.83558594 19.74550781 -2.71679688 19.77539062 C-6.93639332 19.81788075 -9.19774817 19.75774023 -12.85546875 17.48046875 C-15.39580394 14.74745345 -15.76938262 13.83204421 -16.125 10.0625 C-15.76374058 5.79963889 -14.79257946 4.35507946 -11.8125 1.375 C-8.18818203 -0.43715899 -3.99145462 0.06188302 0 0 Z " fill="#F8BF16" transform="translate(52.8125,44.625)"/>
<path d="M0 0 C3.38031589 1.18767855 3.93216817 1.89825225 6 5 C6.48219153 8.04453491 6.46284898 10.95291087 6 14 C4.12379387 16.50160818 2.76108697 17.61945652 0 19 C-7.56097561 19.4200542 -7.56097561 19.4200542 -11 17 C-13.67402716 12.98895926 -13.93255974 9.71231513 -13 5 C-9.06641882 0.29889079 -6.03346405 -0.78211571 0 0 Z " fill="#5792F2" transform="translate(93,66)"/>
<path d="M0 0 C3.24992446 -0.05819424 6.49971435 -0.09366116 9.75 -0.125 C10.67039062 -0.14175781 11.59078125 -0.15851562 12.5390625 -0.17578125 C13.42851563 -0.18222656 14.31796875 -0.18867187 15.234375 -0.1953125 C16.05131836 -0.20578613 16.86826172 -0.21625977 17.70996094 -0.22705078 C20.21887518 0.02170084 21.83395625 0.74299871 24 2 C20.47441767 3.76279117 16.44604409 3.22713881 12.5625 3.25 C11.25442383 3.2809375 11.25442383 3.2809375 9.91992188 3.3125 C9.08138672 3.31765625 8.24285156 3.3228125 7.37890625 3.328125 C6.22757202 3.34214355 6.22757202 3.34214355 5.05297852 3.35644531 C2.50130072 2.91341409 1.62489012 1.96034922 0 0 Z " fill="#F8D03D" transform="translate(40,61)"/>
<path d="M0 0 C0.66 0.33 1.32 0.66 2 1 C1.360625 1.886875 0.72125 2.77375 0.0625 3.6875 C-1.80829757 6.69211428 -2.59423966 8.5510371 -3 12 C-3.33 12 -3.66 12 -4 12 C-4.33292585 7.75519536 -4.43885872 5.64457375 -2 2.0625 C-1.34 1.381875 -0.68 0.70125 0 0 Z " fill="#8FE49B" transform="translate(10,67)"/>
<path d="M0 0 C0.33 0 0.66 0 1 0 C1.05422947 1.4370809 1.09289723 2.87475462 1.125 4.3125 C1.14820312 5.11300781 1.17140625 5.91351563 1.1953125 6.73828125 C1 9 1 9 -1 12 C-1.66 11.67 -2.32 11.34 -3 11 C-2.01 7.37 -1.02 3.74 0 0 Z " fill="#F6CE49" transform="translate(67,50)"/>
<path d="M0 0 C0.66 0 1.32 0 2 0 C1.67 1.32 1.34 2.64 1 4 C0.34 4 -0.32 4 -1 4 C-1 6.31 -1 8.62 -1 11 C-1.33 11 -1.66 11 -2 11 C-2.25 3.375 -2.25 3.375 0 0 Z " fill="#F28AB2" transform="translate(39,26)"/>
</svg>
